<svg width="24" height="24" viewBox="0 0 24 24" fill="none" xmlns="http://www.w3.org/2000/svg">
<path fill-rule="evenodd" clip-rule="evenodd" d="M9 4.5C9 4.22386 9.22464 3.99783 9.49985 4.02052C12.5797 4.27453 15 6.85462 15 10V14.5V20C15 20.2761 14.7754 20.5022 14.5002 20.4795C11.4203 20.2255 9 17.6454 9 14.5V10V4.5Z" fill="black" fill-opacity="0.5"/>
<path fill-rule="evenodd" clip-rule="evenodd" d="M7.5 19.6943C7.5 20.1261 7.18181 20.5 6.75 20.5V20.5C3.85051 20.5 1.5 18.1495 1.5 15.25C1.5 12.3505 3.85051 10 6.75 10V10C7.18181 10 7.5 10.3739 7.5 10.8057V19.6943Z" fill="black" fill-opacity="0.5"/>
<path fill-rule="evenodd" clip-rule="evenodd" d="M6.75 4C4.01897 4 1.77499 6.08531 1.52345 8.75052C1.4975 9.02544 1.72386 9.25 2 9.25H3C5.48528 9.25 7.5 7.23528 7.5 4.75V4.5C7.5 4.22386 7.27614 4 7 4H6.75Z" fill="black" fill-opacity="0.5"/>
<path d="M16.2 8.85001C16.2 6.08858 18.4386 3.85001 21.2 3.85001H22.2V6.05C22.2 8.81143 19.9614 11.05 17.2 11.05H16.2V8.85001Z" fill="black" fill-opacity="0.5"/>
</svg>
